<?xml version="1.0" encoding="utf-8"?>
<!-- Generator: Adobe Illustrator 19.2.1, SVG Export Plug-In . SVG Version: 6.00 Build 0)  -->
<svg version="1.1" id="Layer_1" xmlns="http://www.w3.org/2000/svg" xmlns:xlink="http://www.w3.org/1999/xlink" x="0px" y="0px"
	 viewBox="0 0 128 128" style="enable-background:new 0 0 128 128;" xml:space="preserve">
<style type="text/css">
	.st0{opacity:0.2;fill:#1C1C3A;enable-background:new    ;}
	.st1{clip-path:url(#SVGID_2_);fill:#03323D;}
	.st2{opacity:0.8;clip-path:url(#SVGID_2_);fill:#189B81;}
	.st3{opacity:0.7;clip-path:url(#SVGID_2_);fill:#189B81;}
	.st4{opacity:0.5;clip-path:url(#SVGID_2_);fill:#189B81;}
	.st5{opacity:0.9;clip-path:url(#SVGID_2_);fill:#189B81;}
	.st6{opacity:0.3;clip-path:url(#SVGID_2_);fill:#189B81;}
	.st7{clip-path:url(#SVGID_2_);fill:none;}
	.st8{clip-path:url(#SVGID_2_);}
	.st9{fill:#FFFFFF;}
	.st10{fill:#2BD896;}
</style>
<path class="st0" d="M120.7,128H14.3c-4,0-7.2-3.2-7.2-7.2V14.4c0-4,3.2-7.2,7.2-7.2h106.4c4,0,7.2,3.2,7.2,7.2v106.4
	C127.9,124.8,124.7,128,120.7,128z"/>
<g>
	<defs>
		<path id="SVGID_1_" d="M113.6,120.8H7.2c-4,0-7.2-3.2-7.2-7.2V7.2C0,3.2,3.2,0,7.2,0h106.4c4,0,7.2,3.2,7.2,7.2v106.4
			C120.8,117.5,117.5,120.8,113.6,120.8z"/>
	</defs>
	<clipPath id="SVGID_2_">
		<use xlink:href="#SVGID_1_"  style="overflow:visible;"/>
	</clipPath>
	<rect x="0" class="st1" width="120.8" height="120.8"/>
	<rect x="0" y="40.3" class="st2" width="40.3" height="40.3"/>
	<rect x="0" y="80.5" class="st3" width="40.3" height="40.3"/>
	<rect x="40.3" y="40.3" class="st3" width="40.3" height="40.3"/>
	<rect x="40.3" y="80.5" class="st4" width="40.3" height="40.3"/>
	<rect x="80.5" y="40.3" class="st4" width="40.3" height="40.3"/>
	<rect x="0" class="st5" width="40.3" height="40.3"/>
	<rect x="40.3" class="st2" width="40.3" height="40.3"/>
	<rect x="80.5" class="st3" width="40.3" height="40.3"/>
	<rect x="80.5" y="80.5" class="st6" width="40.3" height="40.3"/>
	<rect x="0" class="st7" width="120.8" height="120.8"/>
	<g class="st8">
		<path class="st9" d="M28.8,51.8c1.9,0,5.9,0.7,5.9,3.1l0,1.9l-2,0v-1.2c0-1.4-2.4-1.9-3.8-1.9c-3.3,0-5.8,2.4-5.8,6
			c0,3.7,2.5,6.3,5.9,6.3c1.1,0,3.9-0.4,3.9-1.8v-1.2h2v1.9c0,2.3-3.9,3.1-6.1,3.1c-4.7,0-8-3.6-8-8.1
			C20.8,55.2,24.3,51.8,28.8,51.8z"/>
		<path class="st9" d="M37.7,66h1.7l0-7.4c0-0.3-0.2-0.5-0.5-0.5h-1.4v-1.7H40c1,0,1.4,0.4,1.4,1.3l0,0.7c0,0.4,0,0.8,0,0.8h0
			c0.5-1.6,1.8-2.9,3.5-2.9c0.3,0,0.6,0,0.6,0l0,2.1c0,0-0.3-0.1-0.6-0.1c-2.4,0-3.4,2.4-3.4,4.6l0,3h1.7v1.7h-5.5V66z"/>
		<path class="st9" d="M49.3,70.4c0.9,0,1.7-0.7,2-1.5l0.5-1.1L48,58.1l-1.4,0v-1.7l5.1,0v1.7l-1.5,0l2.5,6.6c0.2,0.5,0.2,1,0.2,1
			h0.1c0,0,0.1-0.5,0.3-1l2.5-6.6h-1.4v-1.7l4.9,0v1.7h-1.4l-4.4,11.3c-0.7,1.9-2.2,2.9-3.9,2.9c-1.4,0-2.4-0.7-2.4-0.7l0.7-1.6
			C47.8,69.9,48.4,70.4,49.3,70.4z"/>
		<path class="st9" d="M62.3,70.4l0-11.8c0-0.3-0.2-0.5-0.5-0.5l-1.4,0v-1.7l2.5,0c1,0,1.4,0.4,1.4,1.1v0.1c0,0.4,0,0.6,0,0.6h0
			c0,0,0.9-2.1,3.7-2.1c3,0,4.9,2.4,4.9,5.8c0,3.5-2.1,5.8-5,5.8c-2.4,0-3.5-1.9-3.5-1.9h0c0,0,0.1,0.4,0.1,1v3.4h1.8V72l-5.6,0
			v-1.7L62.3,70.4z M67.5,66c1.8,0,3.2-1.4,3.2-4c0-2.4-1.3-4-3.2-4c-1.7,0-3.2,1.2-3.2,4C64.3,64.1,65.4,66,67.5,66z"/>
	</g>
	<g class="st8">
		<path class="st9" d="M77.8,65.9h2l0-12l-3.7,0v2.4h-1.9l0-4.2l13.4,0l0,4.2l-1.9,0v-2.4l-3.7,0l0,12l2,0l0,1.7l-6.1,0L77.8,65.9z"
			/>
		<path class="st9" d="M94.4,60.7h0.7v-0.4c0-1.8-1-2.4-2.4-2.4c-1.8,0-3.2,1.1-3.2,1.1l-0.9-1.5c0,0,1.6-1.3,4.2-1.3
			c2.8,0,4.3,1.5,4.3,4.3v5c0,0.3,0.2,0.5,0.5,0.5h1.1l0,1.7l-2.2,0c-1,0-1.4-0.5-1.4-1.2v-0.2c0-0.4,0.1-0.7,0.1-0.7h0
			c0,0-1,2.4-3.7,2.4c-1.9,0-3.7-1.1-3.7-3.4C87.9,61,92.6,60.7,94.4,60.7z M92.1,66.2c1.9,0,3.1-1.9,3.1-3.6v-0.5h-0.6
			c-1,0-4.5,0-4.5,2.2C90.1,65.3,90.8,66.2,92.1,66.2z"/>
		<path class="st9" d="M104.9,70.4c1.9,0,3.5-0.9,3.5-3.2l0-0.9c0-0.4,0.1-0.7,0.1-0.7h0c-0.7,1.1-1.7,1.8-3.3,1.8
			c-3.1,0-5-2.5-5-5.7c0-3.2,1.8-5.6,4.9-5.6c1.5,0,3,0.6,3.6,1.8h0c0,0,0-0.2,0-0.4c0-0.7,0.4-1.1,1.3-1.1l2.4,0v1.7h-1.2
			c-0.3,0-0.5,0.2-0.5,0.4l0,8.6c0,3.7-2.8,5.1-5.6,5.1c-1.3,0-2.7-0.4-3.8-0.9l0.7-1.6C101.8,69.7,103.2,70.4,104.9,70.4z
			 M108.5,61.8c0-2.9-1.4-3.7-3.2-3.7c-1.9,0-3,1.4-3,3.7c0,2.3,1.2,3.9,3.2,3.9C107.1,65.6,108.5,64.7,108.5,61.8z"/>
	</g>
	<g class="st8">
		<path class="st10" d="M10.6,64.8h-2l0.2-1.2h2l0.5-2.6h-2l0.2-1.1h2l0.5-3.1h1.3l-0.5,3.1h2.4l0.5-3.1H17l-0.5,3.1h2L18.3,61h-2
			l-0.5,2.6h2l-0.2,1.2h-2l-0.5,3h-1.3l0.5-3h-2.4l-0.5,3h-1.3L10.6,64.8z M14.5,63.6L15,61h-2.4l-0.5,2.6H14.5z"/>
	</g>
</g>
</svg>
