<?xml version="1.0" encoding="utf-8"?>
<!-- Generator: Adobe Illustrator 19.2.1, SVG Export Plug-In . SVG Version: 6.00 Build 0)  -->
<svg version="1.1" id="Layer_1" xmlns="http://www.w3.org/2000/svg" xmlns:xlink="http://www.w3.org/1999/xlink" x="0px" y="0px"
	 viewBox="0 0 24 24" style="enable-background:new 0 0 24 24;" xml:space="preserve">
<style type="text/css">
	.st0{clip-path:url(#SVGID_2_);fill:#03323D;}
	.st1{opacity:0.7;clip-path:url(#SVGID_2_);fill:#189B81;}
	.st2{opacity:0.5;clip-path:url(#SVGID_2_);fill:#189B81;}
	.st3{opacity:0.3;clip-path:url(#SVGID_2_);fill:#189B81;}
	.st4{clip-path:url(#SVGID_2_);}
	.st5{fill:#FFFFFF;}
</style>
<g>
	<defs>
		<path id="SVGID_1_" d="M20.8,24H3.2C1.4,24,0,22.6,0,20.8V3.2C0,1.4,1.4,0,3.2,0h17.7C22.6,0,24,1.4,24,3.2v17.7
			C24,22.6,22.6,24,20.8,24z"/>
	</defs>
	<clipPath id="SVGID_2_">
		<use xlink:href="#SVGID_1_"  style="overflow:visible;"/>
	</clipPath>
	<rect class="st0" width="24" height="24"/>
	<rect class="st1" width="12" height="12"/>
	<rect y="12" class="st2" width="12" height="12"/>
	<rect x="12" class="st2" width="12" height="12"/>
	<rect x="12" y="12" class="st3" width="12" height="12"/>
	<g class="st4">
		<path class="st5" d="M12.6,3.5c2,0,6.2,0.7,6.2,3.2l0,2l-2.2,0V7.5c0-1.4-2.5-2-4-2c-3.5,0-6.1,2.6-6.1,6.3c0,3.9,2.6,6.6,6.2,6.6
			c1.2,0,4.1-0.4,4.1-1.9v-1.3h2.2v2c0,2.4-4.1,3.2-6.4,3.2c-4.9,0-8.5-3.8-8.5-8.6C4.2,7.1,7.8,3.5,12.6,3.5z"/>
	</g>
</g>
</svg>
