<?xml version="1.0" encoding="utf-8"?>
<!-- Generator: Adobe Illustrator 19.2.1, SVG Export Plug-In . SVG Version: 6.00 Build 0)  -->
<svg version="1.1" id="Layer_1" xmlns="http://www.w3.org/2000/svg" xmlns:xlink="http://www.w3.org/1999/xlink" x="0px" y="0px"
	 viewBox="0 0 150 150" style="enable-background:new 0 0 150 150;" xml:space="preserve">
<style type="text/css">
	.st0{fill:#03323D;}
	.st1{opacity:0.8;fill:#189B81;}
	.st2{opacity:0.7;fill:#189B81;}
	.st3{opacity:0.5;fill:#189B81;}
	.st4{opacity:0.9;fill:#189B81;}
	.st5{opacity:0.3;fill:#189B81;}
	.st6{fill:none;}
	.st7{fill:#FFFFFF;}
	.st8{fill:#2BD896;}
</style>
<rect x="0" class="st0" width="150" height="150"/>
<rect x="0" y="50" class="st1" width="50" height="50"/>
<rect x="0" y="100" class="st2" width="50" height="50"/>
<rect x="50" y="50" class="st2" width="50" height="50"/>
<rect x="50" y="100" class="st3" width="50" height="50"/>
<rect x="100" y="50" class="st3" width="50" height="50"/>
<rect x="0" class="st4" width="50" height="50"/>
<rect x="50" class="st1" width="50" height="50"/>
<rect x="100" class="st2" width="50" height="50"/>
<rect x="100" y="100" class="st5" width="50" height="50"/>
<rect x="0" class="st6" width="150" height="150"/>
<g>
	<path class="st7" d="M35.8,64.3c2.3,0,7.4,0.8,7.4,3.8l0,2.4l-2.5,0V69c0-1.7-2.9-2.3-4.7-2.3c-4.1,0-7.2,3-7.2,7.4
		c0,4.6,3.1,7.8,7.3,7.8c1.4,0,4.8-0.5,4.8-2.3v-1.5h2.5v2.4c0,2.8-4.8,3.8-7.5,3.8c-5.8,0-10-4.5-10-10.1
		C25.9,68.5,30.2,64.3,35.8,64.3z"/>
	<path class="st7" d="M46.8,81.9h2.1l0-9.1c0-0.4-0.2-0.6-0.6-0.6h-1.7v-2.1h3.1c1.2,0,1.8,0.5,1.8,1.6l0,0.9c0,0.5-0.1,1-0.1,1h0.1
		c0.6-2,2.2-3.6,4.4-3.6c0.4,0,0.7,0.1,0.7,0.1l0,2.6c0,0-0.3-0.1-0.8-0.1c-3,0-4.2,3-4.2,5.7l0,3.7h2.1V84h-6.8V81.9z"/>
	<path class="st7" d="M61.3,87.5c1.2,0,2.1-0.8,2.5-1.9l0.6-1.4l-4.8-12l-1.8,0v-2.1l6.3,0v2.1l-1.8,0l3.1,8.2
		c0.2,0.6,0.2,1.2,0.2,1.2h0.1c0,0,0.1-0.6,0.3-1.2l3.1-8.2h-1.8v-2.1l6.1,0v2.1h-1.7l-5.5,14c-0.9,2.4-2.7,3.6-4.9,3.6
		c-1.8,0-3-0.9-3-0.9l0.9-2C59.3,86.9,60.1,87.5,61.3,87.5z"/>
	<path class="st7" d="M77.3,87.4l0-14.6c0-0.4-0.2-0.6-0.6-0.6l-1.7,0v-2.1l3.1,0c1.2,0,1.7,0.5,1.7,1.4v0.1c0,0.4-0.1,0.8-0.1,0.8
		h0.1c0,0,1.2-2.6,4.7-2.6c3.7,0,6.1,3,6.1,7.3c0,4.4-2.7,7.3-6.3,7.3c-3,0-4.3-2.4-4.3-2.4h-0.1c0,0,0.1,0.5,0.1,1.2v4.2h2.2v2.1
		l-7,0v-2.1L77.3,87.4z M83.8,82c2.2,0,4-1.8,4-4.9c0-3-1.6-5-3.9-5c-2.1,0-4,1.5-4,5C79.9,79.6,81.3,82,83.8,82z"/>
</g>
<g>
	<path class="st7" d="M96.6,81.8h2.4l0-14.9l-4.5,0v3h-2.4l0-5.3l16.6,0l0,5.3l-2.4,0v-3l-4.5,0l0,14.9l2.4,0l0,2.1l-7.6,0
		L96.6,81.8z"/>
	<path class="st7" d="M117.3,75.5h0.9v-0.5c0-2.2-1.3-3-3-3c-2.2,0-4,1.3-4,1.3l-1.1-1.9c0,0,2-1.6,5.3-1.6c3.5,0,5.4,1.8,5.4,5.3
		v6.2c0,0.4,0.2,0.6,0.6,0.6h1.4l0,2.1l-2.8,0c-1.2,0-1.7-0.6-1.7-1.5v-0.2c0-0.5,0.1-0.9,0.1-0.9h-0.1c0,0-1.2,2.9-4.6,2.9
		c-2.3,0-4.6-1.3-4.6-4.2C109.2,75.8,115,75.5,117.3,75.5z M114.4,82.2c2.4,0,3.8-2.4,3.8-4.5v-0.6h-0.7c-1.3,0-5.6,0.1-5.6,2.7
		C111.9,81.1,112.8,82.2,114.4,82.2z"/>
	<path class="st7" d="M130.3,87.5c2.4,0,4.4-1.1,4.4-3.9l0-1.1c0-0.4,0.1-0.9,0.1-0.9h-0.1c-0.8,1.4-2.1,2.2-4.2,2.2
		c-3.8,0-6.2-3.1-6.2-7.1c0-4,2.2-6.9,6.1-6.9c1.8,0,3.7,0.7,4.5,2.3h0.1c0,0-0.1-0.2-0.1-0.5c0-0.9,0.4-1.4,1.6-1.4l3,0v2.1H138
		c-0.4,0-0.6,0.2-0.6,0.5l0,10.7c0,4.6-3.5,6.3-7,6.3c-1.7,0-3.4-0.5-4.7-1.1l0.9-2C126.5,86.5,128.2,87.5,130.3,87.5z M134.8,76.7
		c0-3.6-1.8-4.7-3.9-4.7c-2.4,0-3.8,1.8-3.8,4.6c0,2.9,1.5,4.8,4,4.8C133,81.5,134.8,80.4,134.8,76.7z"/>
</g>
<g>
	<path class="st8" d="M13.2,80.5h-2.5l0.2-1.4h2.5l0.6-3.3h-2.5l0.2-1.4h2.5l0.7-3.9h1.6l-0.7,3.9h3l0.7-3.9h1.6l-0.7,3.9H23
		l-0.2,1.4h-2.5L19.6,79h2.5l-0.2,1.4h-2.5l-0.6,3.7h-1.6l0.7-3.7h-3l-0.7,3.7h-1.6L13.2,80.5z M18,79l0.6-3.3h-3L15,79H18z"/>
</g>
</svg>
